<?xml version="1.0" standalone="no"?>
<!DOCTYPE svg PUBLIC "-//W3C//DTD SVG 20010904//EN"
 "http://www.w3.org/TR/2001/REC-SVG-20010904/DTD/svg10.dtd">
<svg version="1.0" xmlns="http://www.w3.org/2000/svg"
 width="373.000000pt" height="373.000000pt" viewBox="0 0 373.000000 373.000000"
 preserveAspectRatio="xMidYMid meet">
<metadata>
Created by potrace 1.14, written by Peter Selinger 2001-2017
</metadata>
<g transform="translate(0.000000,373.000000) scale(0.100000,-0.100000)"
fill="#000000" stroke="none">
<path d="M1708 3725 c-1 -1 -32 -6 -67 -9 -36 -4 -67 -9 -71 -11 -3 -2 -27 -6
-53 -9 -56 -7 -268 -65 -281 -77 -6 -5 -16 -9 -23 -9 -7 0 -35 -9 -61 -21
-244 -108 -423 -230 -602 -409 -160 -159 -261 -299 -363 -504 -42 -85 -120
-297 -133 -361 -2 -11 -8 -42 -14 -70 -32 -162 -38 -239 -35 -415 5 -228 40
-415 115 -620 47 -129 169 -353 241 -444 159 -202 335 -369 489 -463 135 -83
199 -116 345 -177 104 -44 340 -101 470 -114 39 -4 147 -6 240 -5 139 1 194 6
304 28 385 76 700 243 971 514 244 245 408 529 489 849 19 75 23 90 35 162 3
19 8 49 12 65 20 112 12 420 -17 575 -105 581 -486 1079 -1029 1346 -86 42
-286 115 -350 128 -14 3 -56 12 -95 20 -38 8 -92 18 -120 21 -51 7 -391 16
-397 10z"/>
</g>
</svg>
